<svg width="24" height="24" viewBox="0 0 24 24" fill="none" xmlns="http://www.w3.org/2000/svg">
<path d="M12.0004 1.5C10.3435 1.5 9.00036 2.84314 9.00036 4.5C9.00036 6.15686 10.3435 7.5 12.0004 7.5C13.6572 7.5 15.0003 6.15686 15.0003 4.5C15.0003 2.84314 13.6572 1.5 12.0004 1.5ZM21.0131 6.21678C20.553 5.19712 19.3819 4.70793 18.3333 5.09745L16.992 5.59572C16.7811 5.67407 16.6165 5.84298 16.5436 6.05586C15.897 7.94457 14.1061 9.30072 12.0004 9.30072C9.89472 9.30072 8.10382 7.94457 7.4572 6.05586C7.38433 5.84298 7.21972 5.67408 7.00881 5.59572L5.70307 5.11069C4.63117 4.71252 3.43713 5.24014 3.00985 6.30078C2.58417 7.35747 3.07366 8.56131 4.11598 9.02109L7.5004 10.514V14.8688L5.68554 19.6873C5.32078 20.6558 5.7772 21.7404 6.72465 22.1565C7.70941 22.5891 8.85841 22.1415 9.29085 21.1566L11.5677 15.9713C11.7198 15.6249 12.2127 15.6291 12.3587 15.978L14.5143 21.129C14.977 22.2348 16.2934 22.6991 17.3473 22.1282C18.2355 21.6471 18.6334 20.5852 18.2803 19.6389L16.5004 14.8699V10.5125L19.9138 9.04572C21.0069 8.57603 21.5022 7.30122 21.0131 6.21678Z" fill="#212121"/>
</svg>
