<svg width="24" height="24" viewBox="0 0 24 24" fill="none" xmlns="http://www.w3.org/2000/svg">
<path d="M6.00002 5.40001C6.00002 4.40589 6.80591 3.60001 7.80002 3.60001H16.2C17.1941 3.60001 18 4.40589 18 5.40001V6.00001H18.6C20.2569 6.00001 21.6 7.34315 21.6 9.00001V15C21.6 15.9941 20.7941 16.8 19.8 16.8H18V18.6C18 19.5941 17.1941 20.4 16.2 20.4H7.80002C6.80591 20.4 6.00002 19.5941 6.00002 18.6V16.8H4.20002C3.20591 16.8 2.40002 15.9941 2.40002 15V9.00001C2.40002 7.34315 3.74317 6.00001 5.40002 6.00001H6.00002V5.40001ZM16.8 5.40001C16.8 5.06864 16.5313 4.80001 16.2 4.80001H7.80002C7.46866 4.80001 7.20002 5.06864 7.20002 5.40001V6.00001H16.8V5.40001ZM7.20002 13.8V18.6C7.20002 18.9313 7.46866 19.2 7.80002 19.2H16.2C16.5313 19.2 16.8 18.9313 16.8 18.6V13.8C16.8 13.4687 16.5313 13.2 16.2 13.2H7.80002C7.46866 13.2 7.20002 13.4687 7.20002 13.8Z" fill="#212121"/>
</svg>
